<svg xmlns="http://www.w3.org/2000/svg" width="19.791" height="17.18" viewBox="0 0 19.791 17.18">
  <g id="oval-black-speech-bubble" transform="translate(0 -2.374)">
    <g id="Group_15075" data-name="Group 15075" transform="translate(0 2.374)">
      <path id="Path_14739" data-name="Path 14739" d="M19.741,10.87a7.228,7.228,0,0,1-2.319,5.2V19.5L13.986,18.19a11.226,11.226,0,0,1-3.866.677c-5.313,0-9.62-3.58-9.62-8s4.307-8,9.62-8S19.741,6.454,19.741,10.87Z" transform="translate(-0.225 -2.599)" fill="#8b92a2"/>
      <path id="Path_14740" data-name="Path 14740" d="M17.2,19.554a.276.276,0,0,1-.1-.018l-3.34-1.277a11.474,11.474,0,0,1-3.863.659c-5.456,0-9.9-3.711-9.9-8.272S4.439,2.374,9.9,2.374s9.9,3.711,9.9,8.271a7.506,7.506,0,0,1-2.319,5.314v3.32a.275.275,0,0,1-.275.275ZM13.761,17.69a.276.276,0,0,1,.1.018l3.062,1.171V15.844a.274.274,0,0,1,.084-.2,6.981,6.981,0,0,0,2.235-5c0-4.258-4.192-7.722-9.345-7.722S.55,6.388.55,10.646,4.742,18.368,9.9,18.368a10.913,10.913,0,0,0,3.771-.661A.268.268,0,0,1,13.761,17.69Z" transform="translate(0 -2.374)" fill="#8b92a2"/>
    </g>
  </g>
</svg>
