<svg id="profile-user" xmlns="http://www.w3.org/2000/svg" width="19.222" height="19.221" viewBox="0 0 19.222 19.221">
  <path id="Path_14738" data-name="Path 14738" d="M9.611,0a9.611,9.611,0,1,0,9.611,9.611A9.611,9.611,0,0,0,9.611,0Zm0,2.874A3.179,3.179,0,1,1,6.433,6.054,3.179,3.179,0,0,1,9.611,2.875Zm0,13.835a7.054,7.054,0,0,1-4.593-1.694,1.355,1.355,0,0,1-.475-1.03,3.206,3.206,0,0,1,3.222-3.205h3.7a3.2,3.2,0,0,1,3.217,3.205,1.351,1.351,0,0,1-.475,1.029A7.051,7.051,0,0,1,9.609,16.71Z" transform="translate(0 -0.001)" fill="#8b92a2"/>
</svg>
