<svg xmlns="http://www.w3.org/2000/svg" width="15.794" height="16.424" viewBox="0 0 15.794 16.424">
  <g id="thumb-up" transform="translate(19.134 18.42) rotate(180)">
    <path id="Path_14724" data-name="Path 14724" d="M6.676,30.32H4.194a.856.856,0,0,0-.854.856v8.066a.856.856,0,0,0,.854.856H6.676a.858.858,0,0,0,.856-.856V31.176a.858.858,0,0,0-.856-.856Z" transform="translate(0 -21.679)" fill="#eb6a61"/>
    <path id="Path_14725" data-name="Path 14725" d="M33.974,11.45a1.462,1.462,0,0,0-.427-1.032.7.7,0,0,0-.075-.071,1.427,1.427,0,0,0-.554-2.74H27.827c.028-.049.054-.094.077-.138a3.367,3.367,0,0,0,.347-.755,4.892,4.892,0,0,0,.2-1.131,4.162,4.162,0,0,0-1.079-3.048A1.589,1.589,0,0,0,26.258,2,1.155,1.155,0,0,0,25.066,3.02a.155.155,0,0,0,0,.033V5.108L23.7,8.557a2.211,2.211,0,0,1-.493.748v7.949a7.753,7.753,0,0,0,1.023.209,2.925,2.925,0,0,0,.387.026h6.9a1.3,1.3,0,0,0,.91-.375,1.282,1.282,0,0,0,.375-.908,1.269,1.269,0,0,0-.319-.845,1.474,1.474,0,0,0,.633-2.581A1.465,1.465,0,0,0,33.974,11.45Z" transform="translate(-15.208 0)" fill="#eb6a61"/>
  </g>
</svg>
