<svg xmlns="http://www.w3.org/2000/svg" width="16.389" height="16.76" viewBox="0 0 16.389 16.76">
  <g id="calendar" transform="translate(-5.411)">
    <g id="Group_15064" data-name="Group 15064" transform="translate(5.411)">
      <path id="Path_14726" data-name="Path 14726" d="M119.123,258.622a.38.38,0,0,0-.38-.38h-1.328a.38.38,0,0,0-.38.38v1.327a.38.38,0,0,0,.38.38h1.328a.38.38,0,0,0,.38-.38v-1.327Z" transform="translate(-113.203 -249.376)" fill="#8b92a2"/>
      <path id="Path_14727" data-name="Path 14727" d="M215.758,258.622a.38.38,0,0,0-.38-.38H214.05a.38.38,0,0,0-.38.38v1.327a.38.38,0,0,0,.38.38h1.328a.38.38,0,0,0,.38-.38Z" transform="translate(-206.52 -249.376)" fill="#8b92a2"/>
      <path id="Path_14728" data-name="Path 14728" d="M312.386,258.622a.38.38,0,0,0-.38-.38h-1.328a.38.38,0,0,0-.38.38v1.327a.38.38,0,0,0,.38.38h1.328a.38.38,0,0,0,.38-.38Z" transform="translate(-299.83 -249.376)" fill="#8b92a2"/>
      <path id="Path_14729" data-name="Path 14729" d="M119.123,355.255a.38.38,0,0,0-.38-.38h-1.328a.38.38,0,0,0-.38.38v1.327a.38.38,0,0,0,.38.38h1.328a.38.38,0,0,0,.38-.38v-1.327Z" transform="translate(-113.203 -342.691)" fill="#8b92a2"/>
      <path id="Path_14730" data-name="Path 14730" d="M215.758,355.255a.38.38,0,0,0-.38-.38H214.05a.38.38,0,0,0-.38.38v1.327a.38.38,0,0,0,.38.38h1.328a.38.38,0,0,0,.38-.38Z" transform="translate(-206.52 -342.691)" fill="#8b92a2"/>
      <path id="Path_14731" data-name="Path 14731" d="M312.386,355.255a.38.38,0,0,0-.38-.38h-1.328a.38.38,0,0,0-.38.38v1.327a.38.38,0,0,0,.38.38h1.328a.38.38,0,0,0,.38-.38v-1.327Z" transform="translate(-299.83 -342.691)" fill="#8b92a2"/>
      <path id="Path_14732" data-name="Path 14732" d="M20.341,54.149v2.027a1.656,1.656,0,0,1-1.66,1.655H17.634a1.664,1.664,0,0,1-1.67-1.655V54.142H11.246v2.035a1.664,1.664,0,0,1-1.669,1.655H8.529a1.656,1.656,0,0,1-1.66-1.655V54.149a1.509,1.509,0,0,0-1.459,1.5V67.532a1.51,1.51,0,0,0,1.5,1.511H20.3a1.512,1.512,0,0,0,1.5-1.511V55.65A1.509,1.509,0,0,0,20.341,54.149Zm-.486,12.643a.65.65,0,0,1-.649.649H7.977a.65.65,0,0,1-.649-.649V60.655a.65.65,0,0,1,.649-.65H19.205a.65.65,0,0,1,.649.65v6.137Z" transform="translate(-5.411 -52.283)" fill="#8b92a2"/>
      <path id="Path_14733" data-name="Path 14733" d="M80.119,4.462h1.036a.569.569,0,0,0,.569-.569V.569A.569.569,0,0,0,81.155,0H80.119a.569.569,0,0,0-.569.569V3.893A.569.569,0,0,0,80.119,4.462Z" transform="translate(-77.005 0)" fill="#8b92a2"/>
      <path id="Path_14734" data-name="Path 14734" d="M345.027,4.462h1.036a.569.569,0,0,0,.569-.569V.569A.569.569,0,0,0,346.063,0h-1.036a.569.569,0,0,0-.569.569V3.893A.569.569,0,0,0,345.027,4.462Z" transform="translate(-332.817 0)" fill="#8b92a2"/>
    </g>
  </g>
</svg>
